inDegrees=no
num_controls=7
num_derivatives=13
num_iterations=80
num_multipliers=7
num_parameters=0
num_slacks=7
num_states=26
objective=0.333614
objective_accelerations=0.036571
objective_balance=0.001204
objective_effort=0.027609
objective_height=0.266580
objective_ligament=0.001650
solver_duration=974.279210
status=Solve_Succeeded
success=true
DataType=double
version=3
OpenSimVersion=4.5
endheader
time	/jointset/ground_pelvis/pelvis_tilt/value	/jointset/ground_pelvis/pelvis_tx/value	/jointset/ground_pelvis/pelvis_ty/value	/jointset/hip_r/hip_flexion_r/value	/jointset/hip_r/hip_adduction_r/value	/jointset/hip_r/hip_rotation_r/value	/jointset/back/lumbar_extension/value	/jointset/patellofemoral_r/patellar_flexion_r/value	/jointset/knee_r/knee_flexion_r/value	/jointset/knee_r/knee_adduction_r/value	/jointset/knee_r/knee_rotation_r/value	/jointset/ankle_r/ankle_angle_r/value	/jointset/subtalar_r/subtalar_angle_r/value	/jointset/ground_pelvis/pelvis_tilt/speed	/jointset/ground_pelvis/pelvis_tx/speed	/jointset/ground_pelvis/pelvis_ty/speed	/jointset/hip_r/hip_flexion_r/speed	/jointset/hip_r/hip_adduction_r/speed	/jointset/hip_r/hip_rotation_r/speed	/jointset/back/lumbar_extension/speed	/jointset/patellofemoral_r/patellar_flexion_r/speed	/jointset/knee_r/knee_flexion_r/speed	/jointset/knee_r/knee_adduction_r/speed	/jointset/knee_r/knee_rotation_r/speed	/jointset/ankle_r/ankle_angle_r/speed	/jointset/subtalar_r/subtalar_angle_r/speed	/forceset/tau_hip_flexion_r	/forceset/tau_hip_adduction_r	/forceset/tau_hip_rotation_r	/forceset/tau_knee_flexion_r	/forceset/tau_ankle_angle_r	/forceset/tau_subtalar_angle_r	/forceset/tau_lumbar_extension	lambda_cid13_p0	lambda_cid14_p0	lambda_cid14_p1	lambda_cid14_p2	lambda_cid14_p3	lambda_cid14_p4	lambda_cid14_p5	/jointset/ground_pelvis/pelvis_tilt/accel	/jointset/ground_pelvis/pelvis_tx/accel	/jointset/ground_pelvis/pelvis_ty/accel	/jointset/hip_r/hip_flexion_r/accel	/jointset/hip_r/hip_adduction_r/accel	/jointset/hip_r/hip_rotation_r/accel	/jointset/back/lumbar_extension/accel	/jointset/patellofemoral_r/patellar_flexion_r/accel	/jointset/knee_r/knee_flexion_r/accel	/jointset/knee_r/knee_adduction_r/accel	/jointset/knee_r/knee_rotation_r/accel	/jointset/ankle_r/ankle_angle_r/accel	/jointset/subtalar_r/subtalar_angle_r/accel	gamma_cid13_p0	gamma_cid14_p0	gamma_cid14_p1	gamma_cid14_p2	gamma_cid14_p3	gamma_cid14_p4	gamma_cid14_p5
0	-0.0156724439868033	0.1363301946093546	0.9317124613091642	0.1934211968871041	-0.2458148291719496	-0.2307192154752895	-0.2903787966825928	0.2311786273363406	0.2311786273363406	0.1715948282309167	0.1733448195219047	0.089344008118978	0.04189520857786598	0	0	0	0	0	0	0	0	0	0	0	0	0	0.1056267840562323	-0.05725137761810555	0.009276993801790437	-0.2464435178209313	0.1194058715116182	-0.1388342837686701	-0.02810866339955869	-30.06809340160419	-10.00948500813311	-56.35440846700384	2.902553736708049	3.854552020122312	-610.353828313351	18.49181374620251	-2.129140615700182	-1.95885821675189	-0.8393248412269551	10.49361534990924	0.1593217118430398	2.693140998055471	-6.413601988381441	10.26816246730889	10.26816246730888	-2.866172056465665	0.1717239942868364	2.701822653484601	0.892418189536162	7.37987944220049e-08	6.004076638257905e-08	-4.932166792179539e-07	2.812765340709891e-07	8.705819772727717e-09	2.432724213344232e-07	-3.636988117897899e-07
0.01	-0.015772846132544	0.1362350219461078	0.9316717194469537	0.1939310818820049	-0.2458049147223725	-0.2305810244006279	-0.290700091936641	0.2316819935695391	0.2316819935695391	0.1714503256385712	0.1733459461403388	0.08947899610794788	0.04194215213336989	-0.02000932076796082	-0.01877993343289976	-0.008124703939274619	0.1013050706651051	0.001950586160353528	0.02755162695054729	-0.06375354535407032	0.1001768614164424	0.1001768614164425	-0.02869285238536341	0.0001708683527379012	0.02706211374132465	0.009369221911350412	0.1056601786870894	-0.07774225636148574	0.008906576656252753	-0.2529985575547961	0.127781446364983	-0.1247910906004926	-0.02668067009039289	-30.07232114660806	-6.653649588236876	-49.52194844766208	1.646596430339065	-0.9620261470031344	-612.0443739064507	33.39446252599601	-1.926162923068549	-1.799369282925112	-0.7954442403732271	9.848166025526908	0.2080529593093707	2.773246313204796	-6.280404990585114	9.817975435565536	9.817975435565547	-2.839745605982948	-0.06834159442415348	2.71809671019687	0.9562057313323387	1.132276162609981e-07	5.664924148615428e-08	-7.442997958326571e-07	3.833910769459505e-07	4.519826089601466e-08	8.659397960651777e-08	-5.423888065622792e-07
0.02	-0.0160712085091092	0.1359596882732588	0.9315504503313315	0.1954338602036998	-0.2457764692329562	-0.2301699025025307	-0.291643757480563	0.2331722339082527	0.2331722339082527	0.1710251137670899	0.173347159472262	0.08988654342947984	0.04208219421586688	-0.03959204616490233	-0.03603220192044383	-0.01610545068236981	0.1985786653588405	0.003706207967821523	0.05458616468712645	-0.1244740579747521	0.1973748211030294	0.1973748211030295	-0.05614185582717763	1.734269781899058e-05	0.05451186651242151	0.0186197053986148	0.1056935733179466	-0.0982331351048652	0.00853615951071493	-0.2595535972886609	0.1361570212183478	-0.1107478974323151	-0.02525267678122701	-30.08450781481699	-3.217036155848708	-42.70070369689333	0.4213970799457682	-5.70910940870005	-612.4075282498633	47.98754535130586	-2.043821541496318	-1.65332522768075	-0.8105334019910705	9.687320155635289	0.1203288412659333	2.589723155261844	-5.806995441703743	9.672382121337796	9.672382121337764	-2.617402267755828	0.1068451927554744	2.779350459439043	0.8686705047189559	1.526564380999913e-07	5.32577165897295e-08	-9.953829124473603e-07	4.855056198209121e-07	8.16907020193016e-08	-7.00844621213877e-08	-7.210788013347685e-07
0.03	-0.01656367432881258	0.1355174999401575	0.9313497260078375	0.1978922638570021	-0.2457319480923852	-0.2294935491212547	-0.2931801150652621	0.23562034855493	0.23562034855493	0.1703325478436856	0.1733479541359147	0.09056798318898081	0.04231289643420802	-0.05882816016554622	-0.05234693054060628	-0.02404420918372776	0.2926861754900932	0.005139073157469407	0.08050538767633277	-0.1824035660344096	0.2918005701040148	0.2918005701040154	-0.0821042962675938	0.0001869097064060863	0.08159336936055102	0.02740469099673883	0.09968421242603791	-0.09990645119120421	0.00956061252473395	-0.2527460867008197	0.1257842273610972	-0.1047133572501471	-0.02044489671291393	-30.1040508971064	-6.250812774946181	-40.4890201229685	-0.07064599802704194	-4.13769572228894	-612.609147299293	51.4730758817222	-1.852551721684695	-1.611750069717321	-0.7862809992410963	9.210091450313799	0.145872718796563	2.566260234396921	-5.7268445484976	9.260509879621479	9.260509879621582	-2.545719636306113	-0.02108785968882583	2.64516673401395	0.8659056732605293	1.653494735728032e-07	5.359359477941588e-08	-1.047174752577919e-06	5.427816410623357e-07	9.0227120656171e-08	-1.347914216028771e-07	-7.82091987964765e-07
0.04	-0.01724631036698964	0.1349139236427479	0.9310694673143234	0.2012792676133055	-0.2456748768277213	-0.2285633558373573	-0.2952839509426379	0.2389992884096456	0.2389992884096457	0.1693883465750529	0.1733518244067335	0.09151476128426586	0.04262794712571066	-0.07762608985964092	-0.06830979478210185	-0.03201232468640321	0.3842986859590872	0.006216232786411197	0.1053541452114148	-0.237969716510101	0.383539862710703	0.3835398627107041	-0.106468924872874	0.0006324641310289291	0.1075795336692412	0.035489400030915	0.09367485153412922	-0.1015797672775433	0.01058506553875291	-0.2459385761129786	0.1154114335038465	-0.09867881706797914	-0.01563711664460088	-30.12996114388049	-9.210619367269059	-38.28502200950969	-0.5378890504284951	-2.514446705473208	-611.6109042120277	54.68219135820278	-1.95618468018648	-1.582952351947372	-0.8164048022545747	9.18832022318351	0.0491877291247144	2.375630064436969	-5.33432392491053	9.135090842478361	9.135090842478281	-2.297839900728631	0.1620426759628101	2.560282751551056	0.7286151919289877	1.774912557184774e-07	5.400632664098085e-08	-1.094857494224267e-06	5.991331567030677e-07	9.818712645826892e-08	-1.97602061862791e-07	-8.406788486536792e-07
0.05	-0.01811516331487781	0.1341528487190586	0.93070914424517	0.2055700301879389	-0.2456087522031505	-0.2273910991386616	-0.2979310108534186	0.2432824220726627	0.2432824220726627	0.1682083833633446	0.1733623866133818	0.09271639702564753	0.04302058300997805	-0.09606497729056869	-0.08380787087386539	-0.04007201812204843	0.4733785867935148	0.006966729552613361	0.1289256114816161	-0.2910390583211223	0.4726180981418496	0.4726180981418487	-0.1292721961862097	0.001485253435155271	0.1326066914661138	0.0429553641663892	0.08817496678447458	-0.09454954246418866	0.01132097769324051	-0.2417526662114556	0.1110424954659122	-0.1001264541224733	-0.01109390872162896	-30.16122234299252	-10.61794069438532	-39.24523380952643	-0.2876110225203537	-2.148987059596714	-610.9445272161173	51.23348439791543	-1.775796483846768	-1.518617673757894	-0.8037509888589331	8.696549852260747	0.08164525176250524	2.322295121228807	-5.232758210461937	8.723838534436599	8.723838534436359	-2.233955444286805	0.04781081167330442	2.45281899488851	0.7431238860368213	1.669555429298879e-07	4.590463420020665e-08	-9.850844719161837e-07	5.928765040327866e-07	9.443073561092174e-08	-2.558787583269496e-07	-7.952158839522435e-07
0.06	-0.01916601627893541	0.1332397165472582	0.9302676243667324	0.2107373367386542	-0.2455363896906389	-0.2259882497346804	-0.3010966679625622	0.248442267818192	0.2484422678181919	0.1668079104989728	0.1733816594638786	0.09416408168522458	0.04348538590793622	-0.1140260930935302	-0.09872124440431086	-0.04825168654327105	0.5596074811754768	0.007463810374597042	0.1514726862685011	-0.3416891561827046	0.5588822792131478	0.5588822792131453	-0.1505708554055761	0.00237459290071172	0.1567893173083123	0.04992280276907081	0.08267508203481991	-0.08751931765083407	0.01205688984772812	-0.2375667563099326	0.1066735574279779	-0.1015740911769674	-0.006550700798657055	-30.1963161953333	-11.96002827374208	-40.21668736070515	-0.009651981810821539	-1.736505272057613	-609.207360798572	47.52431631767627	-1.86063035459323	-1.466011839683761	-0.8403997993700542	8.618118932690392	-0.001495459718982354	2.170751767773707	-4.850475135022805	8.572279970508704	8.572279970508674	-1.996917481934774	0.1693527082488093	2.391376360616246	0.6289100853704703	1.554649882493294e-07	3.744443968354449e-08	-8.68681733231071e-07	5.839837179599364e-07	9.01810227993874e-08	-3.139645518944449e-07	-7.453718739712141e-07
0.07000000000000001	-0.02039472593952561	0.1321804704657439	0.9297434709158428	0.2167534157333922	-0.2454605731251114	-0.2243659543800731	-0.3047562305347265	0.2544511496731675	0.2544511496731678	0.1652024278010699	0.1734110388466139	0.09584949662722424	0.0440171235921666	-0.1316449531267763	-0.1130191269071208	-0.05661220104763182	0.6431364505338499	0.007668284709579979	0.1728398437221463	-0.3898290467863107	0.6424272596069999	0.6424272596069983	-0.170285510572194	0.003467913755586454	0.1801686372574512	0.05636029278167868	0.07732428292755965	-0.08997714469364797	0.01283456679090384	-0.2347260596396919	0.1019745857965266	-0.09526846104309582	-0.0021160803946077	-30.23370356616369	-13.04256320832068	-37.64791686726456	-0.4417772691336282	-1.853264825164722	-607.8269493153709	51.34661648631391	-1.701862936896422	-1.395331722172092	-0.8389203848998505	8.149517358672385	0.02672688225453843	2.097833893674061	-4.736599303454224	8.175551293864979	8.175551293865311	-1.922790394200155	0.07443060077879925	2.292472514078842	0.641436287748084	1.342209201274397e-07	3.198574341633013e-08	-6.373431675878686e-07	6.215122800251014e-07	7.446074272738917e-08	-3.296080460023358e-07	-6.890118718764742e-07
0.08	-0.02179749402228948	0.130981514505883	0.9291347036981236	0.2235906307059663	-0.2453836502158045	-0.2225343602190264	-0.3088853626690118	0.2612814701760897	0.2612814701760905	0.1634069883794658	0.1734503732032324	0.09776495730911849	0.04461128974223148	-0.1488377775282674	-0.1266632200736302	-0.065174439909223	0.7238346767426869	0.007685079130466645	0.1933324475563571	-0.4356030686069059	0.7231700088025135	0.723170008802514	-0.1885622001458063	0.004365587677340936	0.202798465287231	0.06240849593597207	0.07197348382029933	-0.09243497173646191	0.0136122437340796	-0.2318853629694504	0.09727561416507524	-0.08896283090922423	0.002318540009442422	-30.27143618200079	-14.06669256565017	-35.07955637268644	-0.8616874054418906	-1.941133358396805	-605.5240494955339	54.96141655994627	-1.775423228242224	-1.335253972423681	-0.8807446708161404	8.051970302783076	-0.03903144253823611	1.995841043886837	-4.377301378420659	8.011833730841058	8.011833730840692	-1.709324363333661	0.1302233216247592	2.241477976743982	0.5510527137075718	1.123475930738512e-07	2.672069219746724e-08	-3.98589387302209e-07	6.6203576777659e-07	5.800042605794167e-08	-3.425133272418651e-07	-6.322314831937531e-07
